{
	"asset":{
		"generator":"Khronos glTF Blender I/O v4.3.47",
		"version":"2.0"
	},
	"scene":0,
	"scenes":[
		{
			"name":"Scene",
			"nodes":[
				0,
				1,
				2,
				3,
				4,
				5
			]
		}
	],
	"nodes":[
		{
			"mesh":0,
			"name":"Plane",
			"scale":[
				10,
				10,
				10
			]
		},
		{
			"mesh":1,
			"name":"Cube",
			"translation":[
				0,
				1,
				0
			]
		},
		{
			"mesh":2,
			"name":"Cube.001",
			"scale":[
				1,
				1,
				8
			],
			"translation":[
				-1.5,
				1,
				0
			]
		},
		{
			"mesh":3,
			"name":"Cube.002",
			"translation":[
				0.5,
				1.100000023841858,
				2
			]
		},
		{
			"name":"Empty"
		},
		{
			"mesh":4,
			"name":"Cube.003",
			"scale":[
				1,
				0.025000005960464478,
				9
			]
		}
	],
	"materials":[
		{
			"doubleSided":true,
			"name":"Material.004",
			"pbrMetallicRoughness":{
				"baseColorFactor":[
					0.14036542177200317,
					0.14036542177200317,
					0.14036542177200317,
					1
				],
				"metallicFactor":0,
				"roughnessFactor":0.8306452035903931
			}
		},
		{
			"doubleSided":true,
			"name":"Material.002",
			"pbrMetallicRoughness":{
				"baseColorFactor":[
					0,
					0.28669384121894836,
					1,
					1
				],
				"metallicFactor":0,
				"roughnessFactor":0.8306452035903931
			}
		},
		{
			"doubleSided":true,
			"name":"Material.001",
			"pbrMetallicRoughness":{
				"baseColorFactor":[
					1,
					0.6120253205299377,
					0.2698562741279602,
					1
				],
				"metallicFactor":0,
				"roughnessFactor":0
			}
		},
		{
			"doubleSided":true,
			"name":"Material.003",
			"pbrMetallicRoughness":{
				"baseColorFactor":[
					0.08424040675163269,
					0.08424040675163269,
					0.08424040675163269,
					1
				],
				"metallicFactor":0,
				"roughnessFactor":0.8306452035903931
			}
		}
	],
	"meshes":[
		{
			"name":"Plane",
			"primitives":[
				{
					"attributes":{
						"POSITION":0,
						"NORMAL":1,
						"TEXCOORD_0":2
					},
					"indices":3,
					"material":0
				}
			]
		},
		{
			"name":"Cube.001",
			"primitives":[
				{
					"attributes":{
						"POSITION":4,
						"NORMAL":5,
						"TEXCOORD_0":6
					},
					"indices":7,
					"material":1
				}
			]
		},
		{
			"name":"Cube.002",
			"primitives":[
				{
					"attributes":{
						"POSITION":8,
						"NORMAL":9,
						"TEXCOORD_0":10
					},
					"indices":11,
					"material":1
				},
				{
					"attributes":{
						"POSITION":12,
						"NORMAL":13,
						"TEXCOORD_0":14
					},
					"indices":15,
					"material":2
				}
			]
		},
		{
			"name":"Cube.003",
			"primitives":[
				{
					"attributes":{
						"POSITION":16,
						"NORMAL":17,
						"TEXCOORD_0":18
					},
					"indices":19,
					"material":1
				}
			]
		},
		{
			"name":"Cube.005",
			"primitives":[
				{
					"attributes":{
						"POSITION":20,
						"NORMAL":21,
						"TEXCOORD_0":22
					},
					"indices":23,
					"material":3
				}
			]
		}
	],
	"accessors":[
		{
			"bufferView":0,
			"componentType":5126,
			"count":4,
			"max":[
				1,
				0,
				1
			],
			"min":[
				-1,
				0,
				-1
			],
			"type":"VEC3"
		},
		{
			"bufferView":1,
			"componentType":5126,
			"count":4,
			"type":"VEC3"
		},
		{
			"bufferView":2,
			"componentType":5126,
			"count":4,
			"type":"VEC2"
		},
		{
			"bufferView":3,
			"componentType":5123,
			"count":6,
			"type":"SCALAR"
		},
		{
			"bufferView":4,
			"componentType":5126,
			"count":72,
			"max":[
				0.5,
				1,
				2
			],
			"min":[
				-0.8693124055862427,
				-0.20000000298023224,
				-2
			],
			"type":"VEC3"
		},
		{
			"bufferView":5,
			"componentType":5126,
			"count":72,
			"type":"VEC3"
		},
		{
			"bufferView":6,
			"componentType":5126,
			"count":72,
			"type":"VEC2"
		},
		{
			"bufferView":7,
			"componentType":5123,
			"count":132,
			"type":"SCALAR"
		},
		{
			"bufferView":8,
			"componentType":5126,
			"count":144,
			"max":[
				1,
				1,
				1
			],
			"min":[
				-1,
				-1,
				-1
			],
			"type":"VEC3"
		},
		{
			"bufferView":9,
			"componentType":5126,
			"count":144,
			"type":"VEC3"
		},
		{
			"bufferView":10,
			"componentType":5126,
			"count":144,
			"type":"VEC2"
		},
		{
			"bufferView":11,
			"componentType":5123,
			"count":288,
			"type":"SCALAR"
		},
		{
			"bufferView":12,
			"componentType":5126,
			"count":24,
			"max":[
				0.9583660364151001,
				0.7999999523162842,
				0.9750000238418579
			],
			"min":[
				0.9583660364151001,
				-1,
				-0.9736006855964661
			],
			"type":"VEC3"
		},
		{
			"bufferView":13,
			"componentType":5126,
			"count":24,
			"type":"VEC3"
		},
		{
			"bufferView":14,
			"componentType":5126,
			"count":24,
			"type":"VEC2"
		},
		{
			"bufferView":15,
			"componentType":5123,
			"count":36,
			"type":"SCALAR"
		},
		{
			"bufferView":16,
			"componentType":5126,
			"count":114,
			"max":[
				0.13391776382923126,
				1.100000023841858,
				0.29295265674591064
			],
			"min":[
				-1,
				-1.100000023841858,
				-4.292952537536621
			],
			"type":"VEC3"
		},
		{
			"bufferView":17,
			"componentType":5126,
			"count":114,
			"type":"VEC3"
		},
		{
			"bufferView":18,
			"componentType":5126,
			"count":114,
			"type":"VEC2"
		},
		{
			"bufferView":19,
			"componentType":5123,
			"count":240,
			"type":"SCALAR"
		},
		{
			"bufferView":20,
			"componentType":5126,
			"count":56,
			"max":[
				2,
				1,
				1
			],
			"min":[
				-3.7594540119171143,
				-1,
				-1
			],
			"type":"VEC3"
		},
		{
			"bufferView":21,
			"componentType":5126,
			"count":56,
			"type":"VEC3"
		},
		{
			"bufferView":22,
			"componentType":5126,
			"count":56,
			"type":"VEC2"
		},
		{
			"bufferView":23,
			"componentType":5123,
			"count":108,
			"type":"SCALAR"
		}
	],
	"bufferViews":[
		{
			"buffer":0,
			"byteLength":48,
			"byteOffset":0,
			"target":34962
		},
		{
			"buffer":0,
			"byteLength":48,
			"byteOffset":48,
			"target":34962
		},
		{
			"buffer":0,
			"byteLength":32,
			"byteOffset":96,
			"target":34962
		},
		{
			"buffer":0,
			"byteLength":12,
			"byteOffset":128,
			"target":34963
		},
		{
			"buffer":0,
			"byteLength":864,
			"byteOffset":140,
			"target":34962
		},
		{
			"buffer":0,
			"byteLength":864,
			"byteOffset":1004,
			"target":34962
		},
		{
			"buffer":0,
			"byteLength":576,
			"byteOffset":1868,
			"target":34962
		},
		{
			"buffer":0,
			"byteLength":264,
			"byteOffset":2444,
			"target":34963
		},
		{
			"buffer":0,
			"byteLength":1728,
			"byteOffset":2708,
			"target":34962
		},
		{
			"buffer":0,
			"byteLength":1728,
			"byteOffset":4436,
			"target":34962
		},
		{
			"buffer":0,
			"byteLength":1152,
			"byteOffset":6164,
			"target":34962
		},
		{
			"buffer":0,
			"byteLength":576,
			"byteOffset":7316,
			"target":34963
		},
		{
			"buffer":0,
			"byteLength":288,
			"byteOffset":7892,
			"target":34962
		},
		{
			"buffer":0,
			"byteLength":288,
			"byteOffset":8180,
			"target":34962
		},
		{
			"buffer":0,
			"byteLength":192,
			"byteOffset":8468,
			"target":34962
		},
		{
			"buffer":0,
			"byteLength":72,
			"byteOffset":8660,
			"target":34963
		},
		{
			"buffer":0,
			"byteLength":1368,
			"byteOffset":8732,
			"target":34962
		},
		{
			"buffer":0,
			"byteLength":1368,
			"byteOffset":10100,
			"target":34962
		},
		{
			"buffer":0,
			"byteLength":912,
			"byteOffset":11468,
			"target":34962
		},
		{
			"buffer":0,
			"byteLength":480,
			"byteOffset":12380,
			"target":34963
		},
		{
			"buffer":0,
			"byteLength":672,
			"byteOffset":12860,
			"target":34962
		},
		{
			"buffer":0,
			"byteLength":672,
			"byteOffset":13532,
			"target":34962
		},
		{
			"buffer":0,
			"byteLength":448,
			"byteOffset":14204,
			"target":34962
		},
		{
			"buffer":0,
			"byteLength":216,
			"byteOffset":14652,
			"target":34963
		}
	],
	"buffers":[
		{
			"byteLength":14868,
			"uri":"model.bin"
		}
	]
}
